# xmcd
#
# Track frame offsets: 
#        150
#        20143
#        34961
#        51809
#        65217
#        93345
#        109785
#        122694
#        142682
#        161745
#        178532
#
# Disc length: 2638 seconds
#
# Revision: 0
# Processed by: cddbd v1.5.2PL0 Copyright (c) Steve Scherf et al.
# Submitted via: ExactAudioCopy v0.99pb5
#
DISCID=970a4c0b
DTITLE=Malcolm Holcombe - Down The River
DYEAR=2012
DGENRE=Blues
TTITLE0=Butcher in Town
TTITLE1=I Call The Shots
TTITLE2=Gone Away At Last
TTITLE3=The Crossing
TTITLE4=Twisted Arms
TTITLE5=The Door
TTITLE6=The Empty Jar
TTITLE7=In Your Mercy
TTITLE8=Whitewash Job
TTITLE9=Trail O' Money
TTITLE10=Down The River
EXTD=
EXTT0=
EXTT1=
EXTT2=
EXTT3=
EXTT4=
EXTT5=
EXTT6=
EXTT7=
EXTT8=
EXTT9=
EXTT10=
PLAYORDER=
